<?xml version="1.0" encoding="UTF-8" standalone="no"?>
<svg
   id="svg90872"
   viewBox="0 0 1024 768"
   height="768"
   width="1024"
   version="1.1"
   sodipodi:docname="BIO-SVG.svg"
   inkscape:version="1.3.2 (091e20e, 2023-11-25)"
   xmlns:inkscape="http://www.inkscape.org/namespaces/inkscape"
   xmlns:sodipodi="http://sodipodi.sourceforge.net/DTD/sodipodi-0.dtd"
   xmlns:xlink="http://www.w3.org/1999/xlink"
   xmlns="http://www.w3.org/2000/svg"
   xmlns:svg="http://www.w3.org/2000/svg"
   xmlns:rdf="http://www.w3.org/1999/02/22-rdf-syntax-ns#"
   xmlns:cc="http://creativecommons.org/ns#"
   xmlns:dc="http://purl.org/dc/elements/1.1/">
  <sodipodi:namedview
     id="namedview1"
     pagecolor="#ffffff"
     bordercolor="#000000"
     borderopacity="0.25"
     inkscape:showpageshadow="2"
     inkscape:pageopacity="0.0"
     inkscape:pagecheckerboard="0"
     inkscape:deskcolor="#d1d1d1"
     inkscape:zoom="0.84472656"
     inkscape:cx="516.73526"
     inkscape:cy="359.87977"
     inkscape:window-width="1664"
     inkscape:window-height="943"
     inkscape:window-x="0"
     inkscape:window-y="25"
     inkscape:window-maximized="0"
     inkscape:current-layer="title" />
  <metadata
     id="metadata90878">
    <rdf:rdf>
      <cc:work
         rdf:about="">
        <dc:format>image/svg+xml</dc:format>
        <dc:type
           rdf:resource="http://purl.org/dc/dcmitype/StillImage" />
      </cc:work>
    </rdf:rdf>
  </metadata>
  <defs
     id="defs90876" />
  <linearGradient
     spreadMethod="pad"
     y2="0.30000001"
     x2="-0.1"
     y1="1.2"
     x1="0.30000001"
     id="3d_gradient2-logo-04a491d0-2348-4f7f-b621-bbc3aec63cfc">
    <stop
       id="stop90853"
       stop-opacity="1"
       stop-color="#ffffff"
       offset="0%" />
    <stop
       id="stop90855"
       stop-opacity="1"
       stop-color="#000000"
       offset="100%" />
  </linearGradient>
  <linearGradient
     gradientTransform="rotate(-30)"
     spreadMethod="pad"
     y2="0.30000001"
     x2="-0.1"
     y1="1.2"
     x1="0.30000001"
     id="3d_gradient3-logo-04a491d0-2348-4f7f-b621-bbc3aec63cfc">
    <stop
       id="stop90858"
       stop-opacity="1"
       stop-color="#ffffff"
       offset="0%" />
    <stop
       id="stop90860"
       stop-opacity="1"
       stop-color="#cccccc"
       offset="50%" />
    <stop
       id="stop90862"
       stop-opacity="1"
       stop-color="#000000"
       offset="100%" />
  </linearGradient>
  <g
     id="logo-group"
     transform="matrix(1.5856713,0,0,1.6537131,-277.37122,-271.7426)">
    <image
       xlink:href=""
       id="container"
       x="272"
       y="144"
       width="480"
       height="480"
       style="display:none" />
    <g
       id="logo-center">
      <image
         xlink:href=""
         id="icon_container"
         style="display:none"
         x="0"
         y="0" />
      <g
         id="slogan"
         style="font-style:oblique;font-weight:600;font-size:32px;line-height:1;font-family:'Nunito Sans';font-variant-ligatures:none;text-align:center;text-anchor:middle" />
      <g
         id="title"
         style="font-style:normal;font-weight:200;font-size:72px;line-height:1;font-family:RadikalW01-Bold;font-variant-ligatures:none;text-align:center;text-anchor:middle">
        <path
           id="path90881"
           style="font-style:normal;font-weight:200;font-size:72px;line-height:1;font-family:RadikalW01-Bold;font-variant-ligatures:none;text-align:center;text-anchor:middle"
           d="m 210.10214,358.88903 q 11.15674,0 17.34366,5.55751 6.28834,5.45265 6.28834,15.30937 0,5.66237 -2.33277,9.43729 -2.23134,3.67005 -4.8684,5.45266 2.8399,1.04858 5.2741,2.62146 2.43419,1.57288 4.15843,3.87978 1.82563,2.20202 2.83989,5.34779 1.01426,3.0409 1.01426,7.02553 0,5.3478 -1.92708,9.54214 -1.92707,4.19435 -5.2741,7.1304 -3.34701,2.83118 -7.91115,4.29921 -4.4627,1.46802 -9.63536,1.46802 h -33.7745 v -77.07116 z m -13.38809,44.14552 v 18.35028 h 16.43084 q 5.07124,0 8.01256,-2.30689 2.94133,-2.3069 2.94133,-6.81583 0,-4.50892 -2.94133,-6.81581 -2.94132,-2.41175 -8.41827,-2.41175 z m 0,-29.57016 v 16.88226 h 11.76528 q 4.46271,0 7.09977,-2.3069 2.63703,-2.30689 2.63703,-6.18666 0,-3.98464 -2.63703,-6.18667 -2.63706,-2.20203 -7.50547,-2.20203 z"
           stroke-width="0"
           stroke-linejoin="miter"
           stroke-miterlimit="2"
           fill="#545454"
           stroke="#545454" />
        <path
           id="path90883"
           style="font-style:normal;font-weight:200;font-size:72px;line-height:1;font-family:RadikalW01-Bold;font-variant-ligatures:none;text-align:center;text-anchor:middle"
           d="m 295.68259,435.96019 h -13.38808 l -0.70998,-5.76723 q -2.0285,2.93604 -5.6798,4.92836 -3.6513,1.88746 -9.22966,1.88746 -9.12824,0 -13.89522,-6.29153 -4.66555,-6.39638 -4.66555,-17.09197 v -30.82847 h 14.90947 v 29.9896 q 0,4.40407 2.0285,7.1304 2.02849,2.62146 5.88264,2.62146 3.6513,0 5.98408,-1.88745 2.33277,-1.99232 3.85415,-4.40407 v -33.44994 h 14.90945 z"
           stroke-width="0"
           stroke-linejoin="miter"
           stroke-miterlimit="2"
           fill="#545454"
           stroke="#545454" />
        <path
           id="path90885"
           style="font-style:normal;font-weight:200;font-size:72px;line-height:1;font-family:RadikalW01-Bold;font-variant-ligatures:none;text-align:center;text-anchor:middle"
           d="m 338.26047,397.0576 h -1.21709 q -4.56413,0 -7.60688,2.09718 -3.04273,1.99232 -5.2741,4.92836 v 31.87705 h -14.90946 v -53.16338 h 13.28668 l 0.91282,7.02554 q 1.92708,-3.25062 5.57837,-5.66237 3.75272,-2.41175 9.22966,-2.41175 z"
           stroke-width="0"
           stroke-linejoin="miter"
           stroke-miterlimit="2"
           fill="#545454"
           stroke="#545454" />
        <path
           id="path90887"
           style="font-style:normal;font-weight:200;font-size:72px;line-height:1;font-family:RadikalW01-Bold;font-variant-ligatures:none;text-align:center;text-anchor:middle"
           d="m 361.40438,435.96019 h -14.90947 v -79.69263 h 14.90947 z"
           stroke-width="0"
           stroke-linejoin="miter"
           stroke-miterlimit="2"
           fill="#545454"
           stroke="#545454" />
        <path
           id="path90889"
           style="font-style:normal;font-weight:200;font-size:72px;line-height:1;font-family:RadikalW01-Bold;font-variant-ligatures:none;text-align:center;text-anchor:middle"
           d="m 389.93014,435.96019 h -14.90948 v -53.16338 h 14.90948 z m -7.40402,-78.95862 q 3.85414,0 6.28833,2.51661 2.4342,2.51661 2.4342,6.50124 0,3.98463 -2.4342,6.50124 -2.43419,2.51661 -6.28833,2.51661 -3.85416,0 -6.28837,-2.51661 -2.43419,-2.51661 -2.43419,-6.50124 0,-3.98463 2.43419,-6.50124 2.43421,-2.51661 6.28837,-2.51661 z"
           stroke-width="0"
           stroke-linejoin="miter"
           stroke-miterlimit="2"
           fill="#545454"
           stroke="#545454" />
        <path
           id="path90891"
           style="font-style:normal;font-weight:200;font-size:72px;line-height:1;font-family:RadikalW01-Bold;font-variant-ligatures:none;text-align:center;text-anchor:middle"
           d="m 432.24968,381.74823 q 9.43251,0 14.30092,6.39638 4.96982,6.39638 4.96982,17.19683 v 30.61875 h -14.90947 v -29.77988 q 0,-4.40406 -2.23135,-7.13039 -2.23135,-2.83119 -6.18691,-2.83119 -3.54989,0 -5.98408,1.99232 -2.33277,1.88746 -3.75272,4.2992 v 33.44994 h -14.90946 v -53.16338 h 13.3881 l 0.70996,5.87209 q 1.92707,-2.93604 5.57836,-4.92836 3.6513,-1.99231 9.02683,-1.99231 z"
           stroke-width="0"
           stroke-linejoin="miter"
           stroke-miterlimit="2"
           fill="#545454"
           stroke="#545454" />
        <path
           id="path90893"
           style="font-style:normal;font-weight:200;font-size:72px;line-height:1;font-family:RadikalW01-Bold;font-variant-ligatures:none;text-align:center;text-anchor:middle"
           d="m 482.83061,381.74823 q 5.57837,0 9.33109,2.09718 3.75273,1.99231 5.78122,4.92836 l 0.70999,-5.97696 h 13.38808 v 50.96135 q 0,6.39637 -2.02851,11.42959 -1.92706,5.13808 -5.57837,8.59842 -3.65129,3.5652 -8.82396,5.45265 -5.17267,1.88746 -11.46101,1.88746 -8.82398,0 -14.90947,-3.14576 -5.98406,-3.14576 -10.34533,-8.28384 l 9.73678,-10.06643 q 2.83989,3.35547 6.38978,5.66237 3.65129,2.41175 8.92538,2.41175 6.18693,0 9.63537,-3.87978 3.44844,-3.77491 3.54988,-9.75186 v -4.08949 q -1.82565,2.20203 -5.2741,4.08949 -3.44845,1.7826 -9.02682,1.7826 -5.07125,0 -9.33108,-1.99232 -4.15844,-2.09717 -7.20119,-5.66236 -3.04273,-3.67006 -4.76696,-8.59843 -1.6228,-4.92835 -1.6228,-10.80044 0,-5.87209 1.6228,-10.80045 1.72423,-4.92836 4.76696,-8.49356 3.04275,-3.67005 7.20119,-5.66236 4.25983,-2.09718 9.33108,-2.09718 z m 3.6513,13.42191 q -5.17267,0 -8.31685,3.67006 -3.14416,3.67005 -3.14416,9.96158 0,6.29152 3.14416,9.96158 3.14418,3.67005 8.31685,3.67005 3.85415,0 6.38976,-1.88745 2.53564,-1.99232 4.25986,-4.82351 V 401.8811 q -1.72422,-2.83118 -4.25986,-4.71864 -2.53561,-1.99232 -6.38976,-1.99232 z"
           stroke-width="0"
           stroke-linejoin="miter"
           stroke-miterlimit="2"
           fill="#545454"
           stroke="#545454" />
        <path
           id="path90895"
           style="font-style:normal;font-weight:200;font-size:72px;line-height:1;font-family:RadikalW01-Bold;font-variant-ligatures:none;text-align:center;text-anchor:middle"
           d="m 544.12931,382.79681 h 14.70661 v 13.00248 h -14.70661 v 20.13288 q 0,3.46034 1.92706,5.3478 1.92707,1.88746 5.17267,1.88746 2.33277,0 3.85416,-0.41944 1.6228,-0.5243 2.73847,-1.15345 l 3.75273,12.16362 q -2.02852,1.2583 -4.96983,2.20203 -2.83989,1.04859 -6.79548,1.04859 -9.53393,0 -15.11231,-5.3478 -5.47694,-5.3478 -5.47694,-15.51909 v -20.3426 h -9.22967 v -13.00248 h 9.22967 v -17.61626 h 14.90947 z"
           stroke-width="0"
           stroke-linejoin="miter"
           stroke-miterlimit="2"
           fill="#545454"
           stroke="#545454" />
        <path
           id="path90897"
           style="font-style:normal;font-weight:200;font-size:72px;line-height:1;font-family:RadikalW01-Bold;font-variant-ligatures:none;text-align:center;text-anchor:middle"
           d="m 591.68016,381.74823 q 5.88266,0 10.85247,2.09718 4.96983,2.09717 8.62113,5.87208 3.65128,3.67006 5.67978,8.80814 2.0285,5.03321 2.0285,11.01016 0,5.97695 -2.0285,11.01017 -2.0285,5.03322 -5.67978,8.70327 -3.6513,3.67006 -8.62113,5.76723 -4.96981,1.99232 -10.85247,1.99232 -5.88265,0 -10.85247,-1.99232 -4.86839,-2.09717 -8.51968,-5.76723 -3.54988,-3.67005 -5.57838,-8.70327 -2.0285,-5.03322 -2.0285,-11.01017 0,-5.97695 2.0285,-11.01016 2.0285,-5.13808 5.57838,-8.80814 3.65129,-3.77491 8.51968,-5.87208 4.96982,-2.09718 10.85247,-2.09718 z m 0,13.42191 q -2.63704,0 -4.86841,1.15345 -2.12991,1.04859 -3.7527,3.04091 -1.52138,1.88745 -2.4342,4.50892 -0.91282,2.62147 -0.91282,5.66237 0,3.04091 0.91282,5.66237 0.91282,2.51661 2.4342,4.40406 1.62279,1.88747 3.7527,2.93605 2.23137,1.04859 4.86841,1.04859 2.63706,0 4.86839,-1.04859 2.23136,-1.04858 3.75272,-2.93605 1.62282,-1.88745 2.53563,-4.40406 0.91283,-2.62146 0.91283,-5.66237 0,-3.0409 -0.91283,-5.66237 -0.91281,-2.62147 -2.53563,-4.50892 -1.52136,-1.99232 -3.75272,-3.04091 -2.23133,-1.15345 -4.86839,-1.15345 z"
           stroke-width="0"
           stroke-linejoin="miter"
           stroke-miterlimit="2"
           fill="#545454"
           stroke="#545454" />
        <path
           id="path90899"
           style="font-style:normal;font-weight:200;font-size:72px;line-height:1;font-family:RadikalW01-Bold;font-variant-ligatures:none;text-align:center;text-anchor:middle"
           d="m 657.08815,381.74823 q 9.43251,0 14.3009,6.39638 4.96982,6.39638 4.96982,17.19683 v 30.61875 h -14.90945 v -29.77988 q 0,-4.40406 -2.23136,-7.13039 -2.23135,-2.83119 -6.18692,-2.83119 -3.54988,0 -5.98407,1.99232 -2.33276,1.88746 -3.75271,4.2992 v 33.44994 h -14.90947 v -53.16338 h 13.38809 l 0.70997,5.87209 q 1.92706,-2.93604 5.57838,-4.92836 3.65129,-1.99231 9.02682,-1.99231 z"
           stroke-width="0"
           stroke-linejoin="miter"
           stroke-miterlimit="2"
           fill="#545454"
           stroke="#545454" />
        <path
           id="path90901"
           style="font-style:normal;font-weight:200;font-size:72px;line-height:1;font-family:RadikalW01-Bold;font-variant-ligatures:none;text-align:center;text-anchor:middle"
           d="m 704.93059,435.96019 h -15.518 v -77.07116 h 15.518 z"
           stroke-width="0"
           stroke-linejoin="miter"
           stroke-miterlimit="2"
           fill="#d07027"
           stroke="#d07027" />
        <path
           id="path90903"
           style="font-style:normal;font-weight:200;font-size:72px;line-height:1;font-family:RadikalW01-Bold;font-variant-ligatures:none;text-align:center;text-anchor:middle"
           d="m 753.59713,357.52586 q 8.21543,0 15.21374,3.04091 6.99833,2.93604 12.17099,8.28384 5.17268,5.34779 8.01258,12.6879 2.94132,7.34011 2.94132,16.04339 0,8.59841 -2.94132,15.93852 -2.8399,7.23525 -8.01258,12.58305 -5.17266,5.24293 -12.17099,8.28384 -6.99831,2.93604 -15.21374,2.93604 -8.21541,0 -15.31516,-2.93604 -6.99831,-3.04091 -12.06957,-8.28384 -5.07124,-5.3478 -8.01256,-12.58305 -2.8399,-7.34011 -2.8399,-15.93852 0,-8.70328 2.8399,-16.04339 2.94132,-7.34011 8.01256,-12.6879 5.07126,-5.3478 12.06957,-8.28384 7.09975,-3.04091 15.31516,-3.04091 z m 0,14.57537 q -4.96981,0 -9.12824,1.88745 -4.15842,1.88746 -7.20118,5.3478 -2.94131,3.35548 -4.66555,8.07412 -1.62279,4.61379 -1.62279,10.1713 0,5.55751 1.62279,10.17129 1.72424,4.61379 4.66555,7.96926 3.04276,3.25062 7.20118,5.13809 4.15843,1.88745 9.12824,1.88745 4.96982,0 9.12824,-1.88745 4.15843,-1.88747 7.09975,-5.13809 3.04276,-3.35547 4.66554,-7.96926 1.72422,-4.61378 1.72422,-10.17129 0,-5.55751 -1.72422,-10.1713 -1.62278,-4.71864 -4.66554,-8.07412 -2.94132,-3.46034 -7.09975,-5.3478 -4.15842,-1.88745 -9.12824,-1.88745 z"
           stroke-width="0"
           stroke-linejoin="miter"
           stroke-miterlimit="2"
           fill="#d07027"
           stroke="#d07027" />
      </g>
      <image
         xlink:href=""
         id="icon"
         style="display:none"
         x="0"
         y="0" />
    </g>
  </g>
</svg>
