<?xml version="1.0" encoding="UTF-8"?>
<svg id="Layer_1" data-name="Layer 1" xmlns="http://www.w3.org/2000/svg" viewBox="0 0 300 153.13">
  <defs>
    <style>
      .cls-1 {
        fill: #fff;
      }

      .cls-2 {
        fill: #00518a;
        stroke: #6fcbd6;
        stroke-miterlimit: 10;
      }

      .cls-3 {
        fill: #6dcbd5;
      }

      .cls-4 {
        fill: #231f20;
      }
    </style>
  </defs>
  <rect class="cls-4" y="0" width="300" height="153.13"/>
  <g>
    <path class="cls-1" d="M34.29,49.23h7.34c7.08,0,9.65,3.96,9.65,9.96v2.57c0,6.7-1.87,8.86-4.79,9.79,3.3,.79,5.95,3.58,5.95,9.65v3.46c0,8.63-2.58,12.67-11.17,12.67h-6.98V49.23Zm7.78,21.14c4.79,0,6.25-2.21,6.25-8.65v-2.44c0-4.74-1.92-7.52-7-7.52h-4.06v18.61h4.81Zm-4.81,24.44h3.99c6.53,0,8.14-3.07,8.14-10.14v-3.45c0-5.81-2.68-8.32-7.55-8.32h-4.58v21.91Z"/>
    <path class="cls-1" d="M75.65,88.43c0,3.99,0,7.38,.08,8.9h-2.81c-.08-.58-.16-2.52-.16-4.09-1.01,3.38-3.19,4.67-6.67,4.67-2.73,0-7.36-.67-7.36-9.02v-27.59h2.97v26.85c0,5.29,1.46,7.15,4.92,7.15,2.93,0,6.06-1.58,6.06-10.78v-23.22h2.97v27.13Z"/>
    <path class="cls-1" d="M83.47,73.62c0-5.63,0-9.63-.08-12.32h2.89c.08,1.21,.16,2.48,.16,5.41,1.32-3.98,4.57-5.71,7.76-5.85v3.44c-5.17,.07-7.75,4.25-7.75,9.84v23.19h-2.97v-23.71Z"/>
    <path class="cls-1" d="M98.78,97.33V47.08h2.97v50.26h-2.97Z"/>
    <path class="cls-1" d="M109.6,61.3h2.97v36.03h-2.97V61.3Zm0-14.23h2.97v6.93h-2.97v-6.93Z"/>
    <path class="cls-1" d="M120.43,72.12c0-7.14,0-8.88-.08-10.82h2.81c.08,.79,.16,1.88,.16,3.95,1.16-3.22,3.7-4.52,7.04-4.52,3.74,0,7.29,1.82,7.29,8.24v28.36h-2.97v-27.77c0-3.74-1.31-6.16-4.84-6.16-3.77,0-6.44,1.65-6.44,10.5v23.43h-2.97v-25.21Z"/>
    <path class="cls-1" d="M161.78,97.92c0,6.59-.93,12.23-9.19,12.23-6.86,0-8.34-4.7-8.34-8.52v-.21h3.05v.29c0,2.63,1.07,5.92,5.45,5.92,4.84,0,6.06-3.29,6.06-9.17v-5.37c-1.08,2.93-3.1,4.23-6.72,4.23-4.7,0-7.76-2.86-7.76-10.75v-15.38c0-7.86,3.98-10.46,8.53-10.46,3.87,0,5.8,2.01,6.27,3.68,0-.94,.16-2.17,.24-3.1h2.57c-.08,1.74-.15,5.26-.15,9.99v26.63Zm-14.41-26.66v15.01c0,5.65,1.69,8.37,5.07,8.37,5.6,0,6.44-5.9,6.44-11.21v-10.73c0-5.28-.61-9.29-5.83-9.29-4.22,0-5.68,3.13-5.68,7.86Z"/>
    <path class="cls-1" d="M165.6,61.3h4.78v-9.07h2.9v9.07h6.09v2.54h-6.09v27.25c0,2.01,.46,4.23,3.01,4.23,.77,0,2.08-.07,2.77-.22v2.3c-1.01,.29-2.49,.37-3.66,.37-2.61,0-5.01-1.44-5.01-6.16v-27.77h-4.78v-2.54Z"/>
    <path class="cls-1" d="M199.74,70.64v16.37c0,7.92-3.8,10.9-8.88,10.9s-8.65-2.77-8.65-10.55v-16.66c0-6.02,3.06-9.98,8.88-9.98s8.65,3.89,8.65,9.91Zm-14.48,.13v16.67c0,5,1.91,7.93,5.68,7.93,3.46,0,5.75-2.08,5.75-7.94v-16.67c0-4.36-1.76-7.5-5.68-7.5s-5.75,2.78-5.75,7.51Z"/>
    <path class="cls-1" d="M206.41,72.12c0-7.14,0-8.88-.08-10.82h2.81c.08,.79,.16,1.88,.16,3.95,1.16-3.22,3.7-4.52,7.04-4.52,3.74,0,7.29,1.82,7.29,8.24v28.36h-2.97v-27.77c0-3.74-1.31-6.16-4.84-6.16-3.77,0-6.44,1.65-6.44,10.5v23.43h-2.97v-25.21Z"/>
  </g>
  <g>
    <path class="cls-3" d="M235.34,87.52h-3.13v-25.21h3.13v25.21Z"/>
    <path class="cls-3" d="M253.16,87.95c-3.79,0-6.83-1.18-9.11-3.53-2.28-2.36-3.42-5.42-3.42-9.19,0-4.05,1.16-7.29,3.49-9.7,2.33-2.41,5.49-3.62,9.5-3.62,3.69,0,6.67,1.17,8.93,3.52s3.39,5.41,3.39,9.19c0,4.11-1.16,7.36-3.47,9.76s-5.41,3.59-9.29,3.59Zm.22-23.38c-2.81,0-5.09,.96-6.85,2.87s-2.63,4.42-2.63,7.52,.86,5.6,2.57,7.5c1.71,1.89,3.94,2.84,6.69,2.84,2.93,0,5.25-.9,6.94-2.71s2.54-4.33,2.54-7.58-.82-5.9-2.46-7.72c-1.64-1.82-3.91-2.72-6.79-2.72Z"/>
  </g>
  <line class="cls-2" x1="232.85" y1="97.13" x2="262.07" y2="97.13"/>
</svg>