<?xml version="1.0" encoding="UTF-8" standalone="no"?>
<svg
   id="svg90872"
   viewBox="0 0 1024 768"
   height="768"
   width="1024"
   version="1.1"
   sodipodi:docname="BIO-SVG.svg"
   inkscape:version="1.3.2 (091e20e, 2023-11-25)"
   xmlns:inkscape="http://www.inkscape.org/namespaces/inkscape"
   xmlns:sodipodi="http://sodipodi.sourceforge.net/DTD/sodipodi-0.dtd"
   xmlns:xlink="http://www.w3.org/1999/xlink"
   xmlns="http://www.w3.org/2000/svg"
   xmlns:svg="http://www.w3.org/2000/svg"
   xmlns:rdf="http://www.w3.org/1999/02/22-rdf-syntax-ns#"
   xmlns:cc="http://creativecommons.org/ns#"
   xmlns:dc="http://purl.org/dc/elements/1.1/">
  <sodipodi:namedview
     id="namedview1"
     pagecolor="#ffffff"
     bordercolor="#000000"
     borderopacity="0.25"
     inkscape:showpageshadow="2"
     inkscape:pageopacity="0.0"
     inkscape:pagecheckerboard="0"
     inkscape:deskcolor="#d1d1d1"
     inkscape:zoom="0.84472656"
     inkscape:cx="516.73526"
     inkscape:cy="359.87977"
     inkscape:window-width="1664"
     inkscape:window-height="943"
     inkscape:window-x="0"
     inkscape:window-y="25"
     inkscape:window-maximized="0"
     inkscape:current-layer="title" />
  <metadata
     id="metadata90878">
    <rdf:rdf>
      <cc:work
         rdf:about="">
        <dc:format>image/svg+xml</dc:format>
        <dc:type
           rdf:resource="http://purl.org/dc/dcmitype/StillImage" />
      </cc:work>
    </rdf:rdf>
  </metadata>
  <defs
     id="defs90876" />
  <linearGradient
     spreadMethod="pad"
     y2="0.30000001"
     x2="-0.1"
     y1="1.2"
     x1="0.30000001"
     id="3d_gradient2-logo-04a491d0-2348-4f7f-b621-bbc3aec63cfc">
    <stop
       id="stop90853"
       stop-opacity="1"
       stop-color="#ffffff"
       offset="0%" />
    <stop
       id="stop90855"
       stop-opacity="1"
       stop-color="#000000"
       offset="100%" />
  </linearGradient>
  <linearGradient
     gradientTransform="rotate(-30)"
     spreadMethod="pad"
     y2="0.30000001"
     x2="-0.1"
     y1="1.2"
     x1="0.30000001"
     id="3d_gradient3-logo-04a491d0-2348-4f7f-b621-bbc3aec63cfc">
    <stop
       id="stop90858"
       stop-opacity="1"
       stop-color="#ffffff"
       offset="0%" />
    <stop
       id="stop90860"
       stop-opacity="1"
       stop-color="#cccccc"
       offset="50%" />
    <stop
       id="stop90862"
       stop-opacity="1"
       stop-color="#000000"
       offset="100%" />
  </linearGradient>
  <g
     id="logo-group"
     transform="matrix(1.5856713,0,0,1.6537131,-277.37122,-271.7426)">
    <image
       xlink:href=""
       id="container"
       x="272"
       y="144"
       width="480"
       height="480"
       style="display:none" />
    <g
       id="logo-center">
      <image
         xlink:href=""
         id="icon_container"
         style="display:none"
         x="0"
         y="0" />
      <g
         id="slogan"
         style="font-style:oblique;font-weight:600;font-size:32px;line-height:1;font-family:'Nunito Sans';font-variant-ligatures:none;text-align:center;text-anchor:middle" />
      <g
         id="title"
         style="font-style:normal;font-weight:200;font-size:72px;line-height:1;font-family:RadikalW01-Bold;font-variant-ligatures:none;text-align:center;text-anchor:middle">
        <path
           id="path90881"
           style="font-style:normal;font-weight:200;font-size:72px;line-height:1;font-family:RadikalW01-Bold;font-variant-ligatures:none;text-align:center;text-anchor:middle"
           d="m 210.10214,358.88903 q 11.15674,0 17.34366,5.55751 6.28834,5.45265 6.28834,15.30937 0,5.66237 -2.33277,9.43729 -2.23134,3.67005 -4.8684,5.45266 2.8399,1.04858 5.2741,2.62146 2.43419,1.57288 4.15843,3.87978 1.82563,2.20202 2.83989,5.34779 1.01426,3.0409 1.01426,7.02553 0,5.3478 -1.92708,9.54214 -1.92707,4.19435 -5.2741,7.1304 -3.34701,2.83118 -7.91115,4.29921 -4.4627,1.46802 -9.63536,1.46802 h -33.7745 v -77.07116 z m -13.38809,44.14552 v 18.35028 h 16.43084 q 5.07124,0 8.01256,-2.30689 2.94133,-2.3069 2.94133,-6.81583 0,-4.50892 -2.94133,-6.81581 -2.94132,-2.41175 -8.41827,-2.41175 z m 0,-29.57016 v 16.88226 h 11.76528 q 4.46271,0 7.09977,-2.3069 2.63703,-2.30689 2.63703,-6.18666 0,-3.98464 -2.63703,-6.18667 -2.63706,-2.20203 -7.50547,-2.20203 z"
           stroke-width="0"
           stroke-linejoin="miter"
           stroke-miterlimit="2"
           fill="#545454"
           stroke="#545454" />
           id="path90899"
           style="font-style:normal;font-weight:200;font-size:72px;line-height:1;font-family:RadikalW01-Bold;font-variant-ligatures:none;text-align:center;text-anchor:middle"
           d="m 657.08815,381.74823 q 9.43251,0 14.3009,6.39638 4.96982,6.39638 4.96982,17.19683 v 30.61875 h -14.90945 v -29.77988 q 0,-4.40406 -2.23136,-7.13039 -2.23135,-2.83119 -6.18692,-2.83119 -3.54988,0 -5.98407,1.99232 -2.33276,1.88746 -3.75271,4.2992 v 33.44994 h -14.90947 v -53.16338 h 13.38809 l 0.70997,5.87209 q 1.92706,-2.93604 5.57838,-4.92836 3.65129,-1.99231 9.02682,-1.99231 z"
           stroke-width="0"
           stroke-linejoin="miter"
           stroke-miterlimit="2"
           fill="#545454"
           stroke="#545454" />
        <path
           id="path90901"
           style="font-style:normal;font-weight:200;font-size:72px;line-height:1;font-family:RadikalW01-Bold;font-variant-ligatures:none;text-align:center;text-anchor:middle"
           d="m 704.93059,435.96019 h -15.518 v -77.07116 h 15.518 z"
           stroke-width="0"
           stroke-linejoin="miter"
           stroke-miterlimit="2"
           fill="#d07027"
           stroke="#d07027" />
        <path
           id="path90903"
           style="font-style:normal;font-weight:200;font-size:72px;line-height:1;font-family:RadikalW01-Bold;font-variant-ligatures:none;text-align:center;text-anchor:middle"
           d="m 753.59713,357.52586 q 8.21543,0 15.21374,3.04091 6.99833,2.93604 12.17099,8.28384 5.17268,5.34779 8.01258,12.6879 2.94132,7.34011 2.94132,16.04339 0,8.59841 -2.94132,15.93852 -2.8399,7.23525 -8.01258,12.58305 -5.17266,5.24293 -12.17099,8.28384 -6.99831,2.93604 -15.21374,2.93604 -8.21541,0 -15.31516,-2.93604 -6.99831,-3.04091 -12.06957,-8.28384 -5.07124,-5.3478 -8.01256,-12.58305 -2.8399,-7.34011 -2.8399,-15.93852 0,-8.70328 2.8399,-16.04339 2.94132,-7.34011 8.01256,-12.6879 5.07126,-5.3478 12.06957,-8.28384 7.09975,-3.04091 15.31516,-3.04091 z m 0,14.57537 q -4.96981,0 -9.12824,1.88745 -4.15842,1.88746 -7.20118,5.3478 -2.94131,3.35548 -4.66555,8.07412 -1.62279,4.61379 -1.62279,10.1713 0,5.55751 1.62279,10.17129 1.72424,4.61379 4.66555,7.96926 3.04276,3.25062 7.20118,5.13809 4.15843,1.88745 9.12824,1.88745 4.96982,0 9.12824,-1.88745 4.15843,-1.88747 7.09975,-5.13809 3.04276,-3.35547 4.66554,-7.96926 1.72422,-4.61378 1.72422,-10.17129 0,-5.55751 -1.72422,-10.1713 -1.62278,-4.71864 -4.66554,-8.07412 -2.94132,-3.46034 -7.09975,-5.3478 -4.15842,-1.88745 -9.12824,-1.88745 z"
           stroke-width="0"
           stroke-linejoin="miter"
           stroke-miterlimit="2"
           fill="#d07027"
           stroke="#d07027" />
      </g>
      <image
         xlink:href=""
         id="icon"
         style="display:none"
         x="0"
         y="0" />
    </g>
  </g>
</svg>
